<svg width="467.09111328125px" height="116px" xmlns="http://www.w3.org/2000/svg" viewBox="16.454443359375006 17 467.09111328125 116" style="background: none;" preserveAspectRatio="xMidYMid"><defs><filter id="editing-cake" x="-100%" y="-100%" width="300%" height="300%"><feFlood flood-color="#2d1500" result="flood-shadow"></feFlood><feFlood flood-color="#894619"></feFlood><feComposite operator="in" in2="SourceAlpha"></feComposite><feConvolveMatrix order="7,10" divisor="1" result="conv" kernelMatrix="0 0 0 1 0 0 0 0 0 1 0 1 0 0 0 0 1 0 1 0 0 0 1 0 0 0 1 0 0 1 0 0 0 1 0 0 1 0 0 0 1 0 1 0 0 0 0 0 1 1 0 0 0 0 0 1 0 1 1 0 1 1 0 0 0 0 1 0 0 0 "></feConvolveMatrix><feGaussianBlur stdDeviation="0.5"></feGaussianBlur><feOffset dy="4" result="offset"></feOffset><feComposite operator="in" in="flood-shadow" in2="offset"></feComposite><feGaussianBlur stdDeviation="4"></feGaussianBlur><feComponentTransfer><feFuncA type="linear" slope="0.7" intercept="-0.2"></feFuncA></feComponentTransfer><feOffset dy="4" result="shadow"></feOffset><feGaussianBlur in="SourceGraphic" stdDeviation="0.5"></feGaussianBlur><feOffset dy="0" result="x0"></feOffset><feGaussianBlur in="SourceGraphic" stdDeviation="1"></feGaussianBlur><feComponentTransfer><feFuncA type="linear" slope="0.8" intercept="-.01"></feFuncA></feComponentTransfer><feOffset dy="1" result="x1"></feOffset><feGaussianBlur in="SourceGraphic" stdDeviation="2"></feGaussianBlur><feComponentTransfer><feFuncA type="linear" slope="0.7" intercept="-.01"></feFuncA></feComponentTransfer><feOffset dy="2" result="x2"></feOffset><feGaussianBlur in="SourceGraphic" stdDeviation="3"></feGaussianBlur><feComponentTransfer><feFuncA type="linear" slope="0.6" intercept="-.01"></feFuncA></feComponentTransfer><feOffset dy="3" result="x3"></feOffset><feMerge><feMergeNode in="shadow"></feMergeNode><feMergeNode in="offset"></feMergeNode><feMergeNode in="x3"></feMergeNode><feMergeNode in="x2"></feMergeNode><feMergeNode in="x1"></feMergeNode><feMergeNode in="x0"></feMergeNode></feMerge></filter></defs><g filter="url(#editing-cake)"><g transform="translate(86.59078550338745, 102.60000038146973)"><path d="M26.64-9.24L26.64-9.24L26.64-9.24Q27.78-7.80 27.78-5.46L27.78-5.46L27.78-5.46Q27.78-2.22 25.38-0.51L25.38-0.51L25.38-0.51Q22.98 1.20 19.20 1.20L19.20 1.20L19.20 1.20Q17.04 1.20 13.74 0.72L13.74 0.72L13.74 0.72Q7.26-0.30 5.28-0.30L5.28-0.30L5.28-0.30Q3.30-0.30 2.52-0.21L2.52-0.21L2.52-0.21Q1.74-0.12 0.48 0L0.48 0L7.86-39.60L33.72-39.60L33.72-39.60Q33.72-35.94 31.95-34.02L31.95-34.02L31.95-34.02Q30.18-32.10 26.70-32.10L26.70-32.10L26.70-32.10Q23.22-32.10 19.68-33.72L19.68-33.72L17.82-23.22L28.50-23.22L28.50-23.22Q28.50-20.04 26.94-18.27L26.94-18.27L26.94-18.27Q25.38-16.50 22.77-16.50L22.77-16.50L22.77-16.50Q20.16-16.50 18.54-17.10L18.54-17.10L18.54-17.10Q16.92-17.70 16.74-17.88L16.74-17.88L14.58-6.54L14.58-6.54Q16.02-6.36 18.72-6.36L18.72-6.36L18.72-6.36Q23.34-6.36 26.64-9.24ZM41.28 0.18L41.28 0.18L41.28 0.18Q39.36 1.20 36.72 1.20L36.72 1.20L36.72 1.20Q34.08 1.20 32.64-0.15L32.64-0.15L32.64-0.15Q31.20-1.50 31.20-4.11L31.20-4.11L31.20-4.11Q31.20-6.72 33.03-9.27L33.03-9.27L33.03-9.27Q34.86-11.82 37.59-13.26L37.59-13.26L37.59-13.26Q40.32-14.70 42.24-15.54L42.24-15.54L38.46-24.24L38.46-24.24Q37.44-26.46 35.52-26.46L35.52-26.46L35.04-26.40L34.86-26.40L34.86-26.40Q35.22-28.50 37.68-30.12L37.68-30.12L37.68-30.12Q40.14-31.80 42.96-31.80L42.96-31.80L42.96-31.80Q47.52-31.80 49.62-27.24L49.62-27.24L50.10-26.28L52.68-19.92L52.68-19.92Q54.30-20.64 54.99-21.99L54.99-21.99L54.99-21.99Q55.68-23.34 55.68-26.01L55.68-26.01L55.68-26.01Q55.68-28.68 54.24-30.36L54.24-30.36L54.24-30.36Q56.52-31.80 59.52-31.80L59.52-31.80L59.52-31.80Q64.92-31.80 64.92-26.58L64.92-26.58L64.92-26.58Q64.92-20.88 57.78-17.58L57.78-17.58L54.18-15.90L57.42-7.56L57.42-7.56Q58.38-5.04 60.12-3.96L60.12-3.96L60.12-3.96Q60.84-3.48 61.68-3.42L61.68-3.42L61.68-3.42Q59.88-0.48 55.98 0.84L55.98 0.84L55.98 0.84Q54.78 1.20 53.16 1.20L53.16 1.20L53.16 1.20Q51.54 1.20 49.68 0.09L49.68 0.09L49.68 0.09Q47.82-1.02 47.16-2.76L47.16-2.76L43.86-11.34L43.86-11.34Q40.50-9.84 40.50-4.38L40.50-4.38L40.50-4.38Q40.50-1.86 41.28 0.18ZM94.50-4.11L94.50-4.11L94.50-4.11Q91.98-1.56 88.53-0.18L88.53-0.18L88.53-0.18Q85.08 1.20 81.66 1.20L81.66 1.20L81.66 1.20Q78.24 1.20 77.04 0.60L77.04 0.60L75.18 10.80L63.00 12L71.28-30.60L81.06-31.62L80.28-27.48L80.28-27.48Q82.80-31.74 88.02-31.74L88.02-31.74L88.02-31.74Q93.90-31.74 97.02-27.96L97.02-27.96L97.02-27.96Q99.78-24.54 99.78-19.32L99.78-19.32L99.78-19.32Q99.78-14.10 98.40-10.38L98.40-10.38L98.40-10.38Q97.02-6.66 94.50-4.11ZM80.94-20.94L77.76-3.36L77.76-3.36Q79.02-2.28 80.58-2.28L80.58-2.28L80.58-2.28Q82.14-2.28 83.04-2.88L83.04-2.88L83.04-2.88Q83.94-3.48 84.60-4.68L84.60-4.68L84.60-4.68Q86.40-7.92 87.84-17.76L87.84-17.76L87.84-17.76Q88.26-20.64 88.26-23.46L88.26-23.46L88.26-23.46Q88.26-26.28 87.63-27.18L87.63-27.18L87.63-27.18Q87.00-28.08 85.80-28.08L85.80-28.08L85.80-28.08Q82.14-28.08 80.94-20.94L80.94-20.94ZM127.68-10.14L127.68-10.14L127.68-10.14Q129.18-9.12 129.18-6.87L129.18-6.87L129.18-6.87Q129.18-4.62 128.04-3.18L128.04-3.18L128.04-3.18Q126.90-1.74 125.04-0.78L125.04-0.78L125.04-0.78Q121.20 1.20 117.06 1.20L117.06 1.20L117.06 1.20Q112.92 1.20 110.49 0.30L110.49 0.30L110.49 0.30Q108.06-0.60 106.44-2.28L106.44-2.28L106.44-2.28Q103.26-5.46 103.26-11.28L103.26-11.28L103.26-11.28Q103.26-20.34 108.18-25.86L108.18-25.86L108.18-25.86Q113.46-31.80 122.64-31.80L122.64-31.80L122.64-31.80Q128.34-31.80 131.16-29.40L131.16-29.40L131.16-29.40Q133.26-27.60 133.26-24.66L133.26-24.66L133.26-24.66Q133.26-14.10 115.02-14.10L115.02-14.10L115.02-14.10Q114.78-12.54 114.78-11.22L114.78-11.22L114.78-11.22Q114.78-8.46 116.01-7.41L116.01-7.41L116.01-7.41Q117.24-6.36 119.52-6.36L119.52-6.36L119.52-6.36Q121.80-6.36 124.23-7.41L124.23-7.41L124.23-7.41Q126.66-8.46 127.68-10.14ZM115.44-16.68L115.44-16.68L115.44-16.68Q119.70-16.68 122.16-19.32L122.16-19.32L122.16-19.32Q124.62-21.84 124.62-25.86L124.62-25.86L124.62-25.86Q124.62-27.24 124.11-27.99L124.11-27.99L124.11-27.99Q123.60-28.74 122.58-28.74L122.58-28.74L122.58-28.74Q121.56-28.74 120.69-28.35L120.69-28.35L120.69-28.35Q119.82-27.96 118.92-26.64L118.92-26.64L118.92-26.64Q116.70-23.64 115.44-16.68ZM154.08-16.86L154.08-16.86L154.08-16.86Q156.24-20.70 156.24-24.60L156.24-24.60L156.24-24.60Q156.24-27.18 154.38-27.18L154.38-27.18L154.38-27.18Q152.94-27.18 151.44-24.72L151.44-24.72L151.44-24.72Q149.88-22.26 149.40-19.08L149.40-19.08L146.28 0L133.86 1.20L139.98-30.60L149.88-31.80L148.80-25.74L148.80-25.74Q151.74-31.80 158.34-31.80L158.34-31.80L158.34-31.80Q161.82-31.80 163.71-30L163.71-30L163.71-30Q165.60-28.20 165.60-24.51L165.60-24.51L165.60-24.51Q165.60-20.82 163.17-18.48L163.17-18.48L163.17-18.48Q160.74-16.14 156.60-16.14L156.60-16.14L156.60-16.14Q154.80-16.14 154.08-16.86ZM167.52-6L167.52-6L167.52-6Q167.52-7.62 168.36-11.70L168.36-11.70L171.54-27.90L168-27.90L168.24-29.70L168.24-29.70Q175.44-31.86 182.40-37.14L182.40-37.14L185.28-37.14L183.84-30.60L188.52-30.60L187.98-27.90L183.36-27.90L180.30-11.70L180.30-11.70Q179.52-7.98 179.52-6.72L179.52-6.72L179.52-6.72Q179.52-3.84 182.04-3.24L182.04-3.24L182.04-3.24Q181.44-1.20 179.28 0L179.28 0L179.28 0Q177.12 1.20 174.06 1.20L174.06 1.20L174.06 1.20Q171 1.20 169.26-0.72L169.26-0.72L169.26-0.72Q167.52-2.64 167.52-6ZM215.52-31.80L215.52-31.80L215.52-31.80Q210.66-31.80 207.12-33.42L207.12-33.42L205.20-23.70L216.78-23.70L216.78-23.70Q216.78-20.52 215.19-18.51L215.19-18.51L215.19-18.51Q213.60-16.50 210.72-16.50L210.72-16.50L210.72-16.50Q207.60-16.50 204.72-17.64L204.72-17.64L204.72-17.64Q204.12-17.88 204.06-17.94L204.06-17.94L200.64 0L187.56 0L195.18-39.60L221.94-39.60L221.94-39.60Q221.94-35.94 220.23-33.87L220.23-33.87L220.23-33.87Q218.52-31.80 215.52-31.80ZM233.10 1.20L233.10 1.20L233.10 1.20Q219.90 1.20 219.90-11.22L219.90-11.22L219.90-11.22Q219.90-20.04 224.76-25.74L224.76-25.74L224.76-25.74Q229.92-31.80 238.86-31.80L238.86-31.80L238.86-31.80Q245.34-31.80 248.64-28.80L248.64-28.80L248.64-28.80Q251.94-25.80 251.94-19.50L251.94-19.50L251.94-19.50Q251.94-9.90 246.78-4.32L246.78-4.32L246.78-4.32Q241.74 1.20 233.10 1.20ZM234.66-24.90L234.66-24.90L234.66-24.90Q233.94-23.28 233.37-20.85L233.37-20.85L233.37-20.85Q232.80-18.42 232.08-14.58L232.08-14.58L232.08-14.58Q231.36-10.74 231.36-6L231.36-6L231.36-6Q231.36-4.44 231.87-3.42L231.87-3.42L231.87-3.42Q232.38-2.40 233.76-2.40L233.76-2.40L233.76-2.40Q235.14-2.40 236.01-3.06L236.01-3.06L236.01-3.06Q236.88-3.72 237.54-5.28L237.54-5.28L237.54-5.28Q238.74-8.04 239.70-13.17L239.70-13.17L239.70-13.17Q240.66-18.30 240.75-20.52L240.75-20.52L240.75-20.52Q240.84-22.74 240.84-24.39L240.84-24.39L240.84-24.39Q240.84-26.04 240.36-27.12L240.36-27.12L240.36-27.12Q239.88-28.20 238.53-28.20L238.53-28.20L238.53-28.20Q237.18-28.20 236.28-27.36L236.28-27.36L236.28-27.36Q235.38-26.52 234.66-24.90ZM268.56 1.20L268.56 1.20L268.56 1.20Q255.36 1.20 255.36-11.22L255.36-11.22L255.36-11.22Q255.36-20.04 260.22-25.74L260.22-25.74L260.22-25.74Q265.38-31.80 274.32-31.80L274.32-31.80L274.32-31.80Q280.80-31.80 284.10-28.80L284.10-28.80L284.10-28.80Q287.40-25.80 287.40-19.50L287.40-19.50L287.40-19.50Q287.40-9.90 282.24-4.32L282.24-4.32L282.24-4.32Q277.20 1.20 268.56 1.20ZM270.12-24.90L270.12-24.90L270.12-24.90Q269.40-23.28 268.83-20.85L268.83-20.85L268.83-20.85Q268.26-18.42 267.54-14.58L267.54-14.58L267.54-14.58Q266.82-10.74 266.82-6L266.82-6L266.82-6Q266.82-4.44 267.33-3.42L267.33-3.42L267.33-3.42Q267.84-2.40 269.22-2.40L269.22-2.40L269.22-2.40Q270.60-2.40 271.47-3.06L271.47-3.06L271.47-3.06Q272.34-3.72 273-5.28L273-5.28L273-5.28Q274.20-8.04 275.16-13.17L275.16-13.17L275.16-13.17Q276.12-18.30 276.21-20.52L276.21-20.52L276.21-20.52Q276.30-22.74 276.30-24.39L276.30-24.39L276.30-24.39Q276.30-26.04 275.82-27.12L275.82-27.12L275.82-27.12Q275.34-28.20 273.99-28.20L273.99-28.20L273.99-28.20Q272.64-28.20 271.74-27.36L271.74-27.36L271.74-27.36Q270.84-26.52 270.12-24.90ZM309.84-31.80L309.84-31.80L309.84-31.80Q312-31.80 313.68-31.32L313.68-31.32L313.68-31.32Q313.74-31.56 313.86-32.22L313.86-32.22L314.16-34.08L314.16-34.08Q314.40-35.28 314.76-37.26L314.76-37.26L315.72-42L327.66-43.20L321-8.40L321-8.40Q320.94-8.04 320.94-7.44L320.94-7.44L320.94-6.48L320.94-6.48Q320.94-5.16 321.60-4.17L321.60-4.17L321.60-4.17Q322.26-3.18 323.34-3.18L323.34-3.18L323.34-3.18Q322.14-0.36 318.48 0.84L318.48 0.84L318.48 0.84Q317.22 1.20 315.45 1.20L315.45 1.20L315.45 1.20Q313.68 1.20 312.06 0.27L312.06 0.27L312.06 0.27Q310.44-0.66 309.96-2.22L309.96-2.22L309.96-2.22Q309-0.66 307.08 0.27L307.08 0.27L307.08 0.27Q305.16 1.20 302.37 1.20L302.37 1.20L302.37 1.20Q299.58 1.20 297.27 0.48L297.27 0.48L297.27 0.48Q294.96-0.24 293.52-1.80L293.52-1.80L293.52-1.80Q290.88-4.86 290.88-11.82L290.88-11.82L290.88-11.82Q290.88-20.82 296.16-26.28L296.16-26.28L296.16-26.28Q301.44-31.80 309.84-31.80ZM309.42-28.20L309.42-28.20L309.42-28.20Q307.20-28.20 306-25.80L306-25.80L306-25.80Q304.80-23.40 303.57-17.46L303.57-17.46L303.57-17.46Q302.34-11.52 302.34-6.18L302.34-6.18L302.34-6.18Q302.34-2.52 304.50-2.52L304.50-2.52L304.50-2.52Q306.42-2.52 307.77-4.44L307.77-4.44L307.77-4.44Q309.12-6.36 309.66-9.54L309.66-9.54L312.90-27.12L312.90-27.12Q311.64-28.20 309.42-28.20Z" fill="#ffd800"></path></g></g><style>text {
  font-size: 64px;
  font-family: Arial Black;
  dominant-baseline: central;
  text-anchor: middle;
}</style></svg>